<?xml version="1.0" encoding="UTF-8" standalone="no"?>
<!-- Created with Inkscape (http://www.inkscape.org/) -->

<svg
   xmlns:dc="http://purl.org/dc/elements/1.1/"
   xmlns:cc="http://creativecommons.org/ns#"
   xmlns:rdf="http://www.w3.org/1999/02/22-rdf-syntax-ns#"
   xmlns:svg="http://www.w3.org/2000/svg"
   xmlns="http://www.w3.org/2000/svg"
   xmlns:sodipodi="http://sodipodi.sourceforge.net/DTD/sodipodi-0.dtd"
   xmlns:inkscape="http://www.inkscape.org/namespaces/inkscape"
   width="1920"
   height="1080"
   viewBox="0 0 1920 1080"
   version="1.1"
   id="svg8"
   inkscape:version="0.92.2 5c3e80d, 2017-08-06"
   sodipodi:docname="core_fadou-2.svg"
   inkscape:export-filename="/home/sceext2a/._/r/p/core/core_fadou-2.png"
   inkscape:export-xdpi="96"
   inkscape:export-ydpi="96">
  <defs
     id="defs2" />
  <sodipodi:namedview
     id="base"
     pagecolor="#ffffff"
     bordercolor="#666666"
     borderopacity="1.0"
     inkscape:pageopacity="0.0"
     inkscape:pageshadow="2"
     inkscape:zoom="0.64"
     inkscape:cx="1279"
     inkscape:cy="633.3"
     inkscape:document-units="px"
     inkscape:current-layer="layer2"
     showgrid="false"
     units="px"
     inkscape:pagecheckerboard="true"
     borderlayer="true"
     inkscape:window-width="1920"
     inkscape:window-height="1136"
     inkscape:window-x="0"
     inkscape:window-y="27"
     inkscape:window-maximized="1" />
  <metadata
     id="metadata5">
    <rdf:RDF>
      <cc:Work
         rdf:about="">
        <dc:format>image/svg+xml</dc:format>
        <dc:type
           rdf:resource="http://purl.org/dc/dcmitype/StillImage" />
        <dc:title></dc:title>
      </cc:Work>
    </rdf:RDF>
  </metadata>
  <g
     inkscape:groupmode="layer"
     id="layer2"
     inkscape:label="core">
    <circle
       style="fill:#000000;fill-opacity:1;stroke:none;stroke-width:1.1354;font-variant-east_asian:normal;opacity:1;vector-effect:none;stroke-linecap:butt;stroke-linejoin:miter;stroke-miterlimit:4;stroke-dasharray:none;stroke-dashoffset:0;stroke-opacity:1"
       id="path3835"
       cx="668"
       cy="608.9"
       r="85.16" />
    <circle
       style="fill:#000000;fill-opacity:1;stroke:none;stroke-width:1.1354"
       id="path3835-3"
       cx="1236"
       cy="717.5"
       r="85.16" />
    <path
       style="fill:none;fill-rule:evenodd;stroke:#000000;stroke-width:25;stroke-linecap:round;stroke-linejoin:round;stroke-miterlimit:4;stroke-dasharray:none;stroke-opacity:1;paint-order:fill markers stroke;font-variant-east_asian:normal;opacity:1;vector-effect:none;fill-opacity:1;stroke-dashoffset:0"
       d="m 1033,272.2 156,29.7"
       id="path4657"
       inkscape:connector-curvature="0" />
    <path
       style="fill:none;fill-rule:evenodd;stroke:#000000;stroke-width:25;stroke-linecap:round;stroke-linejoin:round;stroke-miterlimit:4;stroke-dasharray:none;stroke-opacity:1;paint-order:fill markers stroke;font-variant-east_asian:normal;opacity:1;vector-effect:none;fill-opacity:1;stroke-dashoffset:0"
       d="m 1281,542.5 85,90.6"
       id="path4659"
       inkscape:connector-curvature="0" />
    <path
       style="opacity:1;vector-effect:none;fill:none;fill-opacity:1;fill-rule:evenodd;stroke:#000000;stroke-width:25;stroke-linecap:round;stroke-linejoin:round;stroke-miterlimit:4;stroke-dasharray:none;stroke-dashoffset:0;stroke-opacity:1;paint-order:fill markers stroke;font-variant-east_asian:normal"
       d="M 634.4,478.4 C 669,476.2 684.7,453 745.3,450.3"
       id="path4661"
       inkscape:connector-curvature="0"
       sodipodi:nodetypes="cc" />
    <path
       style="opacity:1;vector-effect:none;fill:none;fill-opacity:1;fill-rule:evenodd;stroke:#000000;stroke-width:25;stroke-linecap:round;stroke-linejoin:round;stroke-miterlimit:4;stroke-dasharray:none;stroke-dashoffset:0;stroke-opacity:1;paint-order:fill markers stroke;font-variant-east_asian:normal"
       d="m 996.9,420.6 c -14.7,22.3 -22.8,62.9 -25,76.6 -6.4,40.1 -50.7,37.4 -41.4,5.1 l 14,-48.4"
       id="path4677"
       inkscape:connector-curvature="0"
       sodipodi:nodetypes="cssc" />
    <path
       style="opacity:1;vector-effect:none;fill:none;fill-opacity:1;fill-rule:evenodd;stroke:#000000;stroke-width:25;stroke-linecap:round;stroke-linejoin:round;stroke-miterlimit:4;stroke-dasharray:none;stroke-dashoffset:0;stroke-opacity:1;paint-order:fill markers stroke;font-variant-east_asian:normal"
       d="m 1444,819.8 c -6,31.8 -16,54.4 -29,63.5 -22,14.6 -24,-5.8 -21,-29.3 3,-17.3 4,-26.5 19,-39.7"
       id="path4693"
       inkscape:connector-curvature="0"
       sodipodi:nodetypes="cssc" />
    <path
       style="opacity:1;vector-effect:none;fill:none;fill-opacity:1;fill-rule:evenodd;stroke:#000000;stroke-width:25;stroke-linecap:round;stroke-linejoin:round;stroke-miterlimit:4;stroke-dasharray:none;stroke-dashoffset:0;stroke-opacity:1;paint-order:fill markers stroke;font-variant-east_asian:normal"
       d="m 560.2,902.4 c -11.8,10.8 0.6,46.7 -8.9,61 -6,9 -24.3,19.9 -32.3,3.1 -4,-8.5 -3.3,-29.5 -1.1,-47 1.9,-14.8 3.9,-27.2 9.7,-37"
       id="path4709"
       inkscape:connector-curvature="0"
       sodipodi:nodetypes="csssc" />
    <path
       style="opacity:1;vector-effect:none;fill:none;fill-opacity:1;fill-rule:evenodd;stroke:#000000;stroke-width:25;stroke-linecap:round;stroke-linejoin:round;stroke-miterlimit:4;stroke-dasharray:none;stroke-dashoffset:0;stroke-opacity:1;paint-order:fill markers stroke;font-variant-east_asian:normal"
       d="m 466.2,667.9 c -9,15 -13.2,34 -17.2,52.5 -3.5,16 -28.8,24.6 -30.4,-3.7 -1.2,-22.1 3.5,-42.9 18.3,-61.9"
       id="path4725"
       inkscape:connector-curvature="0"
       sodipodi:nodetypes="cssc" />
    <path
       style="opacity:1;vector-effect:none;fill:none;fill-opacity:1;fill-rule:evenodd;stroke:#000000;stroke-width:25;stroke-linecap:round;stroke-linejoin:round;stroke-miterlimit:4;stroke-dasharray:none;stroke-dashoffset:0;stroke-opacity:1;paint-order:fill markers stroke;font-variant-east_asian:normal"
       d="m 284.4,783.5 c -1.8,5.6 -2.3,11.3 -3.5,16.8 -2.4,11 -3,17.6 -2,22.7 0.6,3 3,12.4 4,16.3 1.6,6.5 1.5,11.7 -0.1,15.7 -3.2,8.1 -5.1,12.8 -5.5,18.7 l -1.1,17.6"
       id="path4732"
       inkscape:connector-curvature="0"
       sodipodi:nodetypes="csssssc" />
    <path
       style="opacity:1;vector-effect:none;fill:none;fill-opacity:1;fill-rule:evenodd;stroke:#000000;stroke-width:25;stroke-linecap:round;stroke-linejoin:round;stroke-miterlimit:4;stroke-dasharray:none;stroke-dashoffset:0;stroke-opacity:1;paint-order:fill markers stroke;font-variant-east_asian:normal"
       d="m 723.4,58.29 c 0,0 -20.3,-5.04 -26.8,1.1 -3.4,3.24 -0.7,9.42 -1.4,14.09 -0.4,2.69 0.2,5.93 -1.6,8.01 -1.7,1.96 -5.5,0.81 -7.2,2.76 -3.6,4.2 0.4,12.37 -3.6,16.25 -4.2,4.1 -11.5,1.8 -17.1,3.4 -4.7,1.3 -9.7,2.3 -13.6,5.2 -8.2,6.2 -18.2,24.9 -18.2,24.9"
       id="path4739"
       inkscape:connector-curvature="0"
       sodipodi:nodetypes="csssssssc" />
    <path
       style="opacity:1;vector-effect:none;fill:none;fill-opacity:1;fill-rule:evenodd;stroke:#000000;stroke-width:25;stroke-linecap:round;stroke-linejoin:round;stroke-miterlimit:4;stroke-dasharray:none;stroke-dashoffset:0;stroke-opacity:1;paint-order:fill markers stroke;font-variant-east_asian:normal"
       d="m 500.8,347.2 c 0,0 -47.4,29.4 -63.3,51.5 -5.7,7.9 -8,17.9 -10.2,27.4 -2.5,11 3.4,24.4 -3.1,33.6 -9.3,13.1 -30.5,11.1 -43.7,20.3 -9.1,6.3 -18.6,13.5 -23.5,23.4 -5.3,10.6 0.5,24.6 -4.7,35.2 -5.7,11.7 -20.5,16.9 -27.3,28.1 -7.7,12.7 -14.1,42.2 -14.1,42.2"
       id="path4746"
       inkscape:connector-curvature="0"
       sodipodi:nodetypes="csssssssc" />
    <path
       style="opacity:1;vector-effect:none;fill:none;fill-opacity:1;fill-rule:evenodd;stroke:#000000;stroke-width:25;stroke-linecap:round;stroke-linejoin:round;stroke-miterlimit:4;stroke-dasharray:none;stroke-dashoffset:0;stroke-opacity:1;paint-order:fill markers stroke;font-variant-east_asian:normal"
       d="m 327.3,430 c 0,0 -15.3,16.6 -20.3,26.6 -5.6,11.1 -5.5,24.3 -10.1,35.9 -3.5,9 -7.6,18 -13.3,25.8 -8.3,11.3 -29.7,29.7 -29.7,29.7"
       id="path4753"
       inkscape:connector-curvature="0"
       sodipodi:nodetypes="csssc" />
    <path
       style="opacity:1;vector-effect:none;fill:none;fill-opacity:1;fill-rule:evenodd;stroke:#000000;stroke-width:25;stroke-linecap:round;stroke-linejoin:round;stroke-miterlimit:4;stroke-dasharray:none;stroke-dashoffset:0;stroke-opacity:1;paint-order:fill markers stroke;font-variant-east_asian:normal"
       d="m 871.1,74.92 c 0,0 11.9,20.83 14.4,32.38 1.7,7.8 -0.2,15.9 0,23.9 0.3,12 -3,24.8 1.6,35.9 3.9,9.5 17,13.2 20.7,22.7 3.3,8.5 3.3,18.8 0,27.3 -4,10.1 -22.3,23.8 -22.3,23.8"
       id="path4760"
       inkscape:connector-curvature="0"
       sodipodi:nodetypes="csssssc" />
    <path
       style="opacity:1;vector-effect:none;fill:none;fill-opacity:1;fill-rule:evenodd;stroke:#000000;stroke-width:25;stroke-linecap:round;stroke-linejoin:round;stroke-miterlimit:4;stroke-dasharray:none;stroke-dashoffset:0;stroke-opacity:1;paint-order:fill markers stroke;font-variant-east_asian:normal"
       d="m 999.3,820.9 c 13.7,17.1 23.7,56.1 8.7,75.7 -17.8,23.8 -62.8,18.3 -89.4,4.9 -23.6,-11.9 -39.7,-65.1 -39.7,-65.1 0,0 -27.9,32.4 -64,40.9 -29.8,6.9 -67.6,10.7 -89,-11 -16.8,-17 -17.8,-52.3 -9.4,-74.7 8,-21.2 48.6,-39.7 48.6,-39.7"
       id="path4767"
       inkscape:connector-curvature="0"
       sodipodi:nodetypes="csscsssc" />
    <path
       style="opacity:1;vector-effect:none;fill:none;fill-opacity:1;fill-rule:evenodd;stroke:#000000;stroke-width:25;stroke-linecap:round;stroke-linejoin:round;stroke-miterlimit:4;stroke-dasharray:none;stroke-dashoffset:0;stroke-opacity:1;paint-order:fill markers stroke"
       d="M 1517,498.7 1464,405 c 0,0 3,-46.9 2,-70.3 -3,-50.9 -21,-151.6 -21,-151.6 0,0 -80,62.5 -117,96.9 -30,28.1 -86,89.1 -86,89.1 L 856.3,290.9 803.1,50.31 c 0,0 -108.2,128.59 -159.3,195.29 -38.4,50.2 -47.5,62.4 -61,90.6 0,0 -106.9,111.3 -146.9,176.6 -39.3,64.3 -73.2,134.1 -89,207.8 -11.8,55 -16.7,114.2 -3.1,168.8 9.1,36.4 29.8,70.3 54.6,98.4 18,20.2 65.7,48.2 65.7,48.2"
       id="path4774"
       inkscape:connector-curvature="0"
       sodipodi:nodetypes="ccscscccscssssc" />
  </g>
</svg>
