<?xml version="1.0" encoding="UTF-8" standalone="no"?>
<!-- Created with Inkscape (http://www.inkscape.org/) -->

<svg
   xmlns:dc="http://purl.org/dc/elements/1.1/"
   xmlns:cc="http://creativecommons.org/ns#"
   xmlns:rdf="http://www.w3.org/1999/02/22-rdf-syntax-ns#"
   xmlns:svg="http://www.w3.org/2000/svg"
   xmlns="http://www.w3.org/2000/svg"
   xmlns:sodipodi="http://sodipodi.sourceforge.net/DTD/sodipodi-0.dtd"
   xmlns:inkscape="http://www.inkscape.org/namespaces/inkscape"
   width="1920"
   height="1080"
   viewBox="0 0 1920 1080"
   version="1.1"
   id="svg8"
   inkscape:version="0.92.2 5c3e80d, 2017-08-06"
   sodipodi:docname="core_mengb-2.svg"
   inkscape:export-filename="/home/sceext2a/._/r/p/core/core_mengb-2.png"
   inkscape:export-xdpi="96"
   inkscape:export-ydpi="96">
  <defs
     id="defs2" />
  <sodipodi:namedview
     id="base"
     pagecolor="#ffffff"
     bordercolor="#666666"
     borderopacity="1.0"
     inkscape:pageopacity="0.0"
     inkscape:pageshadow="2"
     inkscape:zoom="0.7"
     inkscape:cx="1311"
     inkscape:cy="491"
     inkscape:document-units="px"
     inkscape:current-layer="layer3"
     showgrid="false"
     units="px"
     width="1921px"
     inkscape:pagecheckerboard="true"
     borderlayer="true"
     inkscape:window-width="1920"
     inkscape:window-height="1136"
     inkscape:window-x="0"
     inkscape:window-y="27"
     inkscape:window-maximized="1" />
  <metadata
     id="metadata5">
    <rdf:RDF>
      <cc:Work
         rdf:about="">
        <dc:format>image/svg+xml</dc:format>
        <dc:type
           rdf:resource="http://purl.org/dc/dcmitype/StillImage" />
        <dc:title></dc:title>
      </cc:Work>
    </rdf:RDF>
  </metadata>
  <g
     inkscape:groupmode="layer"
     id="layer3"
     inkscape:label="core"
     style="display:inline">
    <path
       style="fill:none;fill-rule:evenodd;stroke:#000000;stroke-width:40;stroke-linecap:round;stroke-linejoin:round;stroke-miterlimit:4;stroke-dasharray:none;stroke-opacity:1;paint-order:fill markers stroke"
       d="M 691.4,907.2 675.7,1048"
       id="path1026"
       inkscape:connector-curvature="0" />
    <path
       style="opacity:1;vector-effect:none;fill:none;fill-opacity:1;fill-rule:evenodd;stroke:#000000;stroke-width:40;stroke-linecap:round;stroke-linejoin:round;stroke-miterlimit:4;stroke-dasharray:none;stroke-dashoffset:0;stroke-opacity:1;paint-order:fill markers stroke"
       d="M 1123,705.7 C 1412,386.7 1257,32.83 837.1,34.29 313.9,36.11 296,610.1 641.4,732.9 611.5,840.3 600,944.7 592.8,1048"
       id="path1037"
       inkscape:connector-curvature="0"
       sodipodi:nodetypes="cscc" />
    <path
       style="opacity:1;vector-effect:none;fill:none;fill-opacity:1;fill-rule:evenodd;stroke:#000000;stroke-width:40;stroke-linecap:round;stroke-linejoin:round;stroke-miterlimit:4;stroke-dasharray:none;stroke-dashoffset:0;stroke-opacity:1;paint-order:fill markers stroke"
       d="m 1157,1045 23,-190.7 c 0,0 81,-66.4 120,-99.2 54,-45 43,-99.2 41,-115.8 -2,-21.9 -30,-131.8 -72,-116.5 -27,9.7 -16,45.2 -9,90.8 5,28.2 -5,48.8 -15,63.5 -11,16.1 -26,36.3 -63,44.3 -40,8.6 -75,-29.3 -75,-29.3"
       id="path1044"
       inkscape:connector-curvature="0"
       sodipodi:nodetypes="ccssssssc" />
    <path
       style="opacity:1;vector-effect:none;fill:none;fill-opacity:1;fill-rule:evenodd;stroke:#000000;stroke-width:20;stroke-linecap:round;stroke-linejoin:round;stroke-miterlimit:4;stroke-dasharray:none;stroke-dashoffset:0;stroke-opacity:1;paint-order:fill markers stroke"
       d="m 1195,170.3 c 0,0 25,-21.2 35,-34.3 6,-7.6 14,-19.7 12,-30.3 -3,-16.11 -12,-21.54 -22,-21.21 -14,0.5 -22,11.3 -21,21.21 1,11.9 11,18.2 19,19.2 9,1.2 33,-4 43,-15.2 10,-10.81 14,-28.1 11,-42.43 -3,-15.15 -12,-22.22 -12,-22.22"
       id="path1051"
       inkscape:connector-curvature="0"
       sodipodi:nodetypes="csssssssc" />
    <path
       style="opacity:1;vector-effect:none;fill:none;fill-opacity:1;fill-rule:evenodd;stroke:#000000;stroke-width:20;stroke-linecap:round;stroke-linejoin:round;stroke-miterlimit:4;stroke-dasharray:none;stroke-dashoffset:0;stroke-opacity:1;paint-order:fill markers stroke"
       d="m 746.2,350.1 c 0,0 5.2,-46.7 -3,-67.7 -8.4,-21.3 -25.5,-39.6 -44.4,-52.5 -17.3,-11.8 -59.6,-20.2 -59.6,-20.2"
       id="path1067"
       inkscape:connector-curvature="0"
       sodipodi:nodetypes="cssc" />
    <path
       style="opacity:1;vector-effect:none;fill:none;fill-opacity:1;fill-rule:evenodd;stroke:#000000;stroke-width:20;stroke-linecap:round;stroke-linejoin:round;stroke-miterlimit:4;stroke-dasharray:none;stroke-dashoffset:0;stroke-opacity:1;paint-order:fill markers stroke"
       d="m 1027,365.3 c 0,0 7,-43.2 1,-63.7 -7,-27.4 -21,-55.7 -44.4,-72.7 C 966,215.7 920,211.7 920,211.7"
       id="path1074"
       inkscape:connector-curvature="0"
       sodipodi:nodetypes="cssc" />
    <path
       style="fill:#000000;fill-opacity:1;fill-rule:evenodd;stroke:none;stroke-width:1px;stroke-linecap:butt;stroke-linejoin:miter;stroke-opacity:1"
       d="m 632.8,201.7 c 0,0 -18.5,16.8 -27,26.2 -18.7,20.7 -32.9,49.4 -32.3,77.3 0.5,22.9 11.3,48 29.3,62.1 13.8,10.8 51.5,10.6 51.5,10.6 0,0 12.8,-11.9 13.7,-20 0.5,-4.4 -2,-9 -4.6,-12.6 -12.4,-17.6 -21.1,-14.2 -21,-25.2 0.2,-12.4 13,-19.8 12.8,-30.5 -0.2,-13.3 -7.7,-15.8 -14.9,-26.4 -4.3,-6.2 -5,-15.7 -4.1,-23.6 0.9,-8.1 12.7,-27.6 12.7,-27.6 z"
       id="path1081"
       inkscape:connector-curvature="0"
       sodipodi:nodetypes="cssscsssssscc" />
    <path
       style="opacity:1;vector-effect:none;fill:#000000;fill-opacity:1;fill-rule:evenodd;stroke:none;stroke-width:1px;stroke-linecap:butt;stroke-linejoin:miter;stroke-miterlimit:4;stroke-dasharray:none;stroke-dashoffset:0;stroke-opacity:1"
       d="m 911.9,207 c 0,0 -23.3,30.9 -31.7,48.3 -11.1,23 -17.4,51.1 -14.2,76.4 1.9,15.6 8.9,33.4 22.2,41.7 15.7,9.8 55.5,1 55.5,1 0,0 11.3,-12.5 8.1,-18.6 -5.6,-10.7 -25.4,-5 -33.4,-14.2 -6.6,-7.6 -11.2,-19.7 -8,-29.3 3.3,-9.6 19.1,-9.8 24.2,-18.7 4.2,-7.1 5.3,-16.5 3.5,-24.7 -1.7,-8.3 -12.7,-13.2 -13.6,-21.7 -1.1,-11 7.7,-32.9 7.7,-32.9 z"
       id="path1092"
       inkscape:connector-curvature="0"
       sodipodi:nodetypes="cssscsssssscc" />
    <path
       style="opacity:1;vector-effect:none;fill:#000000;fill-opacity:1;fill-rule:evenodd;stroke:none;stroke-width:1px;stroke-linecap:butt;stroke-linejoin:miter;stroke-miterlimit:4;stroke-dasharray:none;stroke-dashoffset:0;stroke-opacity:1"
       d="m 753.8,438.5 c -9.3,-0.1 -23,3.9 -24.7,13.1 -1.6,8.8 9.2,17.2 17.6,20.2 8.5,3.1 20.1,1.6 26.8,-4.5 3.9,-3.5 6.1,-10.4 4.1,-15.2 -3.5,-8.4 -14.7,-13.5 -23.8,-13.6 z"
       id="path1099"
       inkscape:connector-curvature="0"
       sodipodi:nodetypes="ssssss" />
    <path
       style="opacity:1;vector-effect:none;fill:#000000;fill-opacity:1;fill-rule:evenodd;stroke:none;stroke-width:1px;stroke-linecap:butt;stroke-linejoin:miter;stroke-miterlimit:4;stroke-dasharray:none;stroke-dashoffset:0;stroke-opacity:1"
       d="m 801.3,443.6 c -8.2,1.1 -19.5,5.4 -20.7,13.6 -1.1,7.4 7.6,14.4 14.6,17.2 8.4,3.3 20.7,3.5 26.8,-3.1 4.7,-5.1 4.5,-15.1 0.5,-20.7 -4.3,-6.1 -13.8,-8 -21.2,-7 z"
       id="path1101"
       inkscape:connector-curvature="0"
       sodipodi:nodetypes="ssssss" />
    <path
       style="opacity:1;vector-effect:none;fill:#000000;fill-opacity:1;fill-rule:evenodd;stroke:none;stroke-width:1px;stroke-linecap:butt;stroke-linejoin:miter;stroke-miterlimit:4;stroke-dasharray:none;stroke-dashoffset:0;stroke-opacity:1"
       d="m 761.4,509.6 c -22.9,0.1 -46.3,1.7 -65,5.5 -14.9,3 -47.8,12.8 -47.8,12.8 0,0 17.9,44.5 40,65 13.1,12.1 26.6,27.4 44.2,30 11.6,1.7 25.4,-10.6 37.2,-10.7 14.7,-0.1 23.9,13.5 38.6,12.8 14.9,-0.7 29.5,-8 41.4,-17.1 42.7,-32.7 56.4,-72.9 56.4,-72.9 0,0 -59.4,-20.4 -94.9,-23.5 -14.7,-1.3 -32.3,-2 -50.1,-1.9 z M 702.9,535 c 46,0.4 94.5,2.7 149.9,10.7 L 850,575.8 702.2,564.4 Z"
       id="path1113"
       inkscape:connector-curvature="0"
       sodipodi:nodetypes="cccccccccccccccc" />
    <path
       style="opacity:1;vector-effect:none;fill:none;fill-opacity:1;fill-rule:evenodd;stroke:#000000;stroke-width:25;stroke-linecap:round;stroke-linejoin:round;stroke-miterlimit:4;stroke-dasharray:none;stroke-dashoffset:0;stroke-opacity:1;paint-order:fill markers stroke"
       d="m 873.6,442.9 c 0,0 44.4,30.4 48.5,54.3 2.3,13.5 -15.7,37.8 -15.7,37.8 0,0 28.9,27 30,45 1.4,21.8 -29.3,58.6 -29.3,58.6"
       id="path1152"
       inkscape:connector-curvature="0"
       sodipodi:nodetypes="cscsc" />
    <path
       style="opacity:1;vector-effect:none;fill:none;fill-opacity:1;fill-rule:evenodd;stroke:#000000;stroke-width:25;stroke-linecap:round;stroke-linejoin:round;stroke-miterlimit:4;stroke-dasharray:none;stroke-dashoffset:0;stroke-opacity:1;paint-order:fill markers stroke"
       d="m 670.7,435.7 c 0,0 -32.4,29.3 -35.7,49.3 -2.4,14.8 13.6,42.9 13.6,42.9"
       id="path1168"
       inkscape:connector-curvature="0"
       sodipodi:nodetypes="csc" />
  </g>
</svg>
