<?xml version="1.0" encoding="UTF-8" standalone="no"?>
<!-- Created with Inkscape (http://www.inkscape.org/) -->

<svg
   xmlns:dc="http://purl.org/dc/elements/1.1/"
   xmlns:cc="http://creativecommons.org/ns#"
   xmlns:rdf="http://www.w3.org/1999/02/22-rdf-syntax-ns#"
   xmlns:svg="http://www.w3.org/2000/svg"
   xmlns="http://www.w3.org/2000/svg"
   xmlns:sodipodi="http://sodipodi.sourceforge.net/DTD/sodipodi-0.dtd"
   xmlns:inkscape="http://www.inkscape.org/namespaces/inkscape"
   width="1920"
   height="1080"
   viewBox="0 0 1920 1080"
   version="1.1"
   id="svg8"
   inkscape:version="0.92.2 5c3e80d, 2017-08-06"
   sodipodi:docname="core-liulei-2.svg"
   inkscape:export-filename="/home/sceext2a/._/r/p/core/core-liulei-1.png"
   inkscape:export-xdpi="96"
   inkscape:export-ydpi="96">
  <defs
     id="defs2" />
  <sodipodi:namedview
     id="base"
     pagecolor="#ffffff"
     bordercolor="#666666"
     borderopacity="1.0"
     inkscape:pageopacity="0.0"
     inkscape:pageshadow="2"
     inkscape:zoom="0.43"
     inkscape:cx="1053"
     inkscape:cy="541.5"
     inkscape:document-units="px"
     inkscape:current-layer="layer8"
     showgrid="false"
     units="px"
     width="1921px"
     inkscape:pagecheckerboard="true"
     borderlayer="true"
     inkscape:window-width="1920"
     inkscape:window-height="1016"
     inkscape:window-x="0"
     inkscape:window-y="27"
     inkscape:window-maximized="1" />
  <metadata
     id="metadata5">
    <rdf:RDF>
      <cc:Work
         rdf:about="">
        <dc:format>image/svg+xml</dc:format>
        <dc:type
           rdf:resource="http://purl.org/dc/dcmitype/StillImage" />
        <dc:title></dc:title>
      </cc:Work>
    </rdf:RDF>
  </metadata>
  <g
     inkscape:groupmode="layer"
     id="layer2"
     inkscape:label="core-1"
     sodipodi:insensitive="true">
    <path
       style="fill:none;fill-rule:evenodd;stroke:#000000;stroke-width:30;stroke-linecap:round;stroke-linejoin:round;stroke-miterlimit:4;stroke-dasharray:none;stroke-opacity:1;paint-order:fill markers stroke"
       d="M 711.4,821.4 C 522.2,806.4 352.7,728.2 332.9,558.6 319.5,443.5 320.2,327.8 390,215.7 463.8,97.07 623.2,23.93 762.9,24.29 910.6,24.67 1055,90.3 1156,228.6 c 70,95.9 81,231.9 68,350 -25,227.2 -311.6,240.5 -431.1,247.1"
       id="path875"
       inkscape:connector-curvature="0"
       sodipodi:nodetypes="csssssc" />
    <path
       style="opacity:1;vector-effect:none;fill:none;fill-opacity:1;fill-rule:evenodd;stroke:#000000;stroke-width:20;stroke-linecap:round;stroke-linejoin:round;stroke-miterlimit:4;stroke-dasharray:none;stroke-dashoffset:0;stroke-opacity:1;paint-order:fill markers stroke"
       d="m 650,947.1 1.4,91.9"
       id="path886"
       inkscape:connector-curvature="0" />
    <path
       style="opacity:1;vector-effect:none;fill:none;fill-opacity:1;fill-rule:evenodd;stroke:#000000;stroke-width:20;stroke-linecap:round;stroke-linejoin:round;stroke-miterlimit:4;stroke-dasharray:none;stroke-dashoffset:0;stroke-opacity:1;paint-order:fill markers stroke"
       d="m 930,941.4 5.7,104.6"
       id="path893"
       inkscape:connector-curvature="0" />
  </g>
  <g
     inkscape:groupmode="layer"
     id="layer3"
     inkscape:label="core-2"
     sodipodi:insensitive="true">
    <path
       style="fill:#ffffff;fill-opacity:1;fill-rule:evenodd;stroke:none;stroke-width:1px;stroke-linecap:butt;stroke-linejoin:miter;stroke-opacity:1"
       d="m 428.6,230 c 0,0 -45.3,-29.5 -54.3,-55.8 -7.5,-22.1 0.2,-52.3 17.1,-68.5 16.8,-16.12 50.5,-26.34 72.8,-20 27.3,7.73 61.5,50 61.5,50 z"
       id="path910"
       inkscape:connector-curvature="0"
       sodipodi:nodetypes="cssscc" />
    <path
       style="opacity:1;vector-effect:none;fill:#ffffff;fill-opacity:1;fill-rule:evenodd;stroke:none;stroke-width:1px;stroke-linecap:butt;stroke-linejoin:miter;stroke-miterlimit:4;stroke-dasharray:none;stroke-dashoffset:0;stroke-opacity:1"
       d="m 1024,140 c 0,0 41,-42.9 63,-50 27,-9.16 57,-1.16 79,18.6 21,19.6 27,48.5 18,75.7 -9,27 -56,58.6 -56,58.6 z"
       id="path921"
       inkscape:connector-curvature="0"
       sodipodi:nodetypes="cssscc" />
    <path
       style="opacity:1;vector-effect:none;fill:#ffffff;fill-opacity:1;fill-rule:evenodd;stroke:none;stroke-width:1px;stroke-linecap:butt;stroke-linejoin:miter;stroke-miterlimit:4;stroke-dasharray:none;stroke-dashoffset:0;stroke-opacity:1"
       d="m 690.1,890 c 0,0 -31.3,46.5 -70.1,107.1 -7.6,11.9 -29.8,17.9 -41.4,9.9 -14.3,-10.8 -10.3,-35.9 -1.5,-51.3 24.7,-43.2 68.6,-101.4 68.6,-101.4 z"
       id="path928"
       inkscape:connector-curvature="0"
       sodipodi:nodetypes="cssscc" />
    <path
       style="opacity:1;vector-effect:none;fill:#ffffff;fill-opacity:1;fill-rule:evenodd;stroke:none;stroke-width:1px;stroke-linecap:butt;stroke-linejoin:miter;stroke-miterlimit:4;stroke-dasharray:none;stroke-dashoffset:0;stroke-opacity:1"
       d="m 895.8,842.6 c 0,0 57.4,69.9 82.5,120 7,14 7.6,36.9 -6.3,44.4 -13.5,7 -27.8,-2 -31.6,-8.7 -41.8,-72.1 -56,-108.5 -56,-108.5 z"
       id="path935"
       inkscape:connector-curvature="0"
       sodipodi:nodetypes="cssscc" />
  </g>
  <g
     inkscape:groupmode="layer"
     id="layer4"
     inkscape:label="core-3"
     sodipodi:insensitive="true">
    <path
       style="opacity:1;vector-effect:none;fill:none;fill-opacity:1;fill-rule:evenodd;stroke:#000000;stroke-width:20;stroke-linecap:round;stroke-linejoin:round;stroke-miterlimit:4;stroke-dasharray:none;stroke-dashoffset:0;stroke-opacity:1;paint-order:fill markers stroke"
       d="m 427.6,240.6 c 0,0 -52.7,-29.2 -59.4,-86.9 -2.8,-24.1 10.1,-49.4 28.9,-63.7 17.9,-13.67 44.5,-19.1 77.2,-10 29.8,8.3 60,62.7 60,62.7"
       id="path952"
       inkscape:connector-curvature="0"
       sodipodi:nodetypes="csssc" />
    <path
       style="opacity:1;vector-effect:none;fill:none;fill-opacity:1;fill-rule:evenodd;stroke:#000000;stroke-width:20;stroke-linecap:round;stroke-linejoin:round;stroke-miterlimit:4;stroke-dasharray:none;stroke-dashoffset:0;stroke-opacity:1;paint-order:fill markers stroke"
       d="m 1024,140 c 0,0 29,-43.6 70,-52.86 35,-7.99 52,0.21 75,22.46 21,21 24,52.4 13,78.3 -11,27.5 -54,55 -54,55"
       id="path968"
       inkscape:connector-curvature="0"
       sodipodi:nodetypes="csssc" />
    <path
       style="opacity:1;vector-effect:none;fill:none;fill-opacity:1;fill-rule:evenodd;stroke:#000000;stroke-width:20;stroke-linecap:round;stroke-linejoin:round;stroke-miterlimit:4;stroke-dasharray:none;stroke-dashoffset:0;stroke-opacity:1;paint-order:fill markers stroke"
       d="m 672.1,819.3 c 0,0 -80.1,82.3 -97.5,135 -9.3,28.2 -7.5,43.8 -0.3,51.7 9.4,10 26.1,12 42.1,-4 24.4,-24.2 66.1,-96.3 66.1,-96.3"
       id="path975"
       inkscape:connector-curvature="0"
       sodipodi:nodetypes="csssc" />
    <path
       style="opacity:1;vector-effect:none;fill:none;fill-opacity:1;fill-rule:evenodd;stroke:#000000;stroke-width:20;stroke-linecap:round;stroke-linejoin:round;stroke-miterlimit:4;stroke-dasharray:none;stroke-dashoffset:0;stroke-opacity:1;paint-order:fill markers stroke"
       d="m 881.8,821.1 c 0,0 71.4,83.6 98.2,142.5 5.7,12.6 6.4,31.4 -3.2,41.4 -5.9,6 -20.1,10 -32.5,-1 -41.5,-36.2 -59.9,-114.2 -59.9,-114.2"
       id="path982"
       inkscape:connector-curvature="0"
       sodipodi:nodetypes="csssc" />
  </g>
  <g
     inkscape:groupmode="layer"
     id="layer5"
     inkscape:label="core-4"
     sodipodi:insensitive="true">
    <path
       style="opacity:1;vector-effect:none;fill:none;fill-opacity:1;fill-rule:evenodd;stroke:#000000;stroke-width:20;stroke-linecap:round;stroke-linejoin:round;stroke-miterlimit:4;stroke-dasharray:none;stroke-dashoffset:0;stroke-opacity:1;paint-order:fill markers stroke"
       d="m 765.7,285 c 6.8,9 -15,132.1 -62.6,143.5 -16.3,3.9 -23.9,34.8 -8.1,39.3 29.6,8.6 51.4,32.1 72.7,32.4 37.3,0.4 78.6,-8.5 110.1,-10.1 16.9,-0.8 35.8,-32.5 20.2,-37.4 -29.9,-9.3 -69.2,-74 -61.6,-79.8"
       id="path990"
       inkscape:connector-curvature="0"
       sodipodi:nodetypes="csssssc" />
    <path
       style="opacity:1;vector-effect:none;fill:none;fill-opacity:1;fill-rule:evenodd;stroke:#000000;stroke-width:20;stroke-linecap:round;stroke-linejoin:round;stroke-miterlimit:4;stroke-dasharray:none;stroke-dashoffset:0;stroke-opacity:1;paint-order:fill markers stroke"
       d="m 695,642.6 c 0,0 -43.7,-28.4 -50.5,-51.5 -6.9,-23.6 11.1,-36.6 30.3,-35.4 32.8,2.1 64.6,6.3 89.9,10.1 50.2,7.5 63.7,1.1 88.9,4.1 23.9,2.9 54.3,0.7 69.7,19.2 9.5,11.4 12,31.9 4,44.4 -10.4,16.2 -54.5,19.2 -54.5,19.2"
       id="path997"
       inkscape:connector-curvature="0"
       sodipodi:nodetypes="cssssssc" />
    <path
       style="opacity:1;vector-effect:none;fill:none;fill-opacity:1;fill-rule:evenodd;stroke:#000000;stroke-width:20;stroke-linecap:round;stroke-linejoin:round;stroke-miterlimit:4;stroke-dasharray:none;stroke-dashoffset:0;stroke-opacity:1;paint-order:fill markers stroke"
       d="m 693,697.2 c 0,0 44.8,20 68.7,20.2 31.8,0.3 91.9,-25.3 91.9,-25.3"
       id="path1004"
       inkscape:connector-curvature="0"
       sodipodi:nodetypes="csc" />
    <path
       style="opacity:1;vector-effect:none;fill:none;fill-opacity:1;fill-rule:evenodd;stroke:#000000;stroke-width:20;stroke-linecap:round;stroke-linejoin:round;stroke-miterlimit:4;stroke-dasharray:none;stroke-dashoffset:0;stroke-opacity:1;paint-order:fill markers stroke"
       d="m 562.7,285 c 0,0 57.6,21 85.8,17.2 43.2,-5.8 107.1,-61.6 107.1,-61.6"
       id="path1011"
       inkscape:connector-curvature="0"
       sodipodi:nodetypes="csc" />
    <path
       style="opacity:1;vector-effect:none;fill:none;fill-opacity:1;fill-rule:evenodd;stroke:#000000;stroke-width:20;stroke-linecap:round;stroke-linejoin:round;stroke-miterlimit:4;stroke-dasharray:none;stroke-dashoffset:0;stroke-opacity:1;paint-order:fill markers stroke"
       d="m 880.9,368.9 c 0,0 -41.3,-54.5 -34.4,-83.9 5.9,-25.3 31.7,-40.8 57.6,-43.4 41.2,-4.2 80,30.9 107.9,61.6 14,15 31,27.9 26,47.5 -4,14.6 -37,26.2 -37,26.2"
       id="path1018"
       inkscape:connector-curvature="0"
       sodipodi:nodetypes="cssssc" />
  </g>
  <g
     inkscape:groupmode="layer"
     id="layer6"
     inkscape:label="core-5"
     sodipodi:insensitive="true">
    <path
       style="opacity:1;vector-effect:none;fill:#000000;fill-opacity:1;fill-rule:evenodd;stroke:none;stroke-width:1px;stroke-linecap:butt;stroke-linejoin:miter;stroke-miterlimit:4;stroke-dasharray:none;stroke-dashoffset:0;stroke-opacity:1"
       d="m 756,217 c -18.6,2.1 -38.1,19.5 -41.6,37.9 -3.3,17.1 6.3,42 23,46.9 16.3,4.8 35.2,-11.6 43.7,-26.3 7.3,-12.7 8,-31.3 0.6,-44.1 -4.9,-8.5 -15.9,-15.5 -25.7,-14.4 z"
       id="path1026"
       inkscape:connector-curvature="0"
       sodipodi:nodetypes="ssssss" />
    <path
       style="opacity:1;vector-effect:none;fill:#000000;fill-opacity:1;fill-rule:evenodd;stroke:none;stroke-width:1px;stroke-linecap:butt;stroke-linejoin:miter;stroke-miterlimit:4;stroke-dasharray:none;stroke-dashoffset:0;stroke-opacity:1"
       d="m 740.7,456.5 c -16,3 -35.9,17.9 -34.9,34.2 0.9,15.1 21.2,25.7 36.2,27.6 14.9,1.9 35.5,-3.6 41.5,-17.3 4.4,-10.1 -3.9,-22.9 -11.5,-30.9 -7.8,-8.3 -20.1,-15.7 -31.3,-13.6 z"
       id="path1037"
       inkscape:connector-curvature="0"
       sodipodi:nodetypes="ssssss" />
    <path
       style="opacity:1;vector-effect:none;fill:#000000;fill-opacity:1;fill-rule:evenodd;stroke:none;stroke-width:1px;stroke-linecap:butt;stroke-linejoin:miter;stroke-miterlimit:4;stroke-dasharray:none;stroke-dashoffset:0;stroke-opacity:1"
       d="m 826.3,464.8 c -13.5,4.9 -27.6,18.9 -27.5,33.3 0.1,12.8 13.4,24 25.1,29.2 16.1,7.1 37.8,7.8 52.6,-1.6 6.1,-3.9 10.6,-12.2 9.9,-19.4 -1.3,-14.8 -14.4,-27.6 -27.1,-35.4 -9.5,-5.8 -22.5,-9.9 -33,-6.1 z"
       id="path1044"
       inkscape:connector-curvature="0"
       sodipodi:nodetypes="sssssss" />
    <path
       style="opacity:1;vector-effect:none;fill:#000000;fill-opacity:1;fill-rule:evenodd;stroke:none;stroke-width:1px;stroke-linecap:butt;stroke-linejoin:miter;stroke-miterlimit:4;stroke-dasharray:none;stroke-dashoffset:0;stroke-opacity:1"
       d="m 904.9,218.7 c -12.7,2.3 -27.5,16 -25.9,28.8 1.4,11.7 17.8,16.8 29.2,19.7 10.4,2.6 21.9,-6.5 32.1,-3.2 12.2,3.9 16,25.7 28.8,25.5 11.3,-0.2 21.8,-12.2 24.7,-23.1 2.3,-8.7 -0.5,-20.7 -7.8,-25.9 -10.6,-7.6 -26.4,4.7 -39.1,1.6 -10.7,-2.6 -19.1,-11.1 -28.8,-16.4 -4.4,-2.4 -8.3,-7.9 -13.2,-7 z"
       id="path1051"
       inkscape:connector-curvature="0"
       sodipodi:nodetypes="ssssssssss" />
    <path
       style="opacity:1;vector-effect:none;fill:#000000;fill-opacity:1;fill-rule:evenodd;stroke:none;stroke-width:1px;stroke-linecap:butt;stroke-linejoin:miter;stroke-miterlimit:4;stroke-dasharray:none;stroke-dashoffset:0;stroke-opacity:1"
       d="m 643.2,546.7 c -15.5,1.1 -30.7,17.9 -32.5,33.3 -2,17.1 10.3,38.2 26.3,44.4 13.6,5.3 33.3,-0.9 42,-12.7 7.5,-10.2 5.3,-26.6 -0.4,-37.9 -6.7,-13.3 -20.6,-28.2 -35.4,-27.1 z"
       id="path1058"
       inkscape:connector-curvature="0"
       sodipodi:nodetypes="ssssss" />
    <path
       style="opacity:1;vector-effect:none;fill:#000000;fill-opacity:1;fill-rule:evenodd;stroke:none;stroke-width:1px;stroke-linecap:butt;stroke-linejoin:miter;stroke-miterlimit:4;stroke-dasharray:none;stroke-dashoffset:0;stroke-opacity:1"
       d="m 925.1,566.8 c -15.2,-1.1 -34.3,12.2 -36.6,27.2 -2.2,14.6 14.1,27.4 26.3,35.8 8.3,5.7 20.4,12.7 29.2,7.8 12.1,-6.6 15.7,-26.1 12.4,-39.5 -3.5,-14.3 -16.6,-30.2 -31.3,-31.3 z"
       id="path1065"
       inkscape:connector-curvature="0"
       sodipodi:nodetypes="ssssss" />
    <path
       style="opacity:1;vector-effect:none;fill:#000000;fill-opacity:1;fill-rule:evenodd;stroke:none;stroke-width:1px;stroke-linecap:butt;stroke-linejoin:miter;stroke-miterlimit:4;stroke-dasharray:none;stroke-dashoffset:0;stroke-opacity:1"
       d="m 681,624.9 c -10.9,-0.1 0.7,30.2 11.6,30.1 82,-0.6 92.5,0.5 191.8,1.1 9.6,0.1 16.5,-27.9 6.9,-28.3 C 799,624.3 775,625.7 681,624.9 Z"
       id="path1072"
       inkscape:connector-curvature="0"
       sodipodi:nodetypes="sssss" />
  </g>
  <g
     inkscape:groupmode="layer"
     id="layer7"
     inkscape:label="core-6"
     sodipodi:insensitive="true">
    <path
       style="opacity:1;vector-effect:none;fill:#000000;fill-opacity:1;fill-rule:evenodd;stroke:none;stroke-width:1px;stroke-linecap:butt;stroke-linejoin:miter;stroke-miterlimit:4;stroke-dasharray:none;stroke-dashoffset:0;stroke-opacity:1"
       d="m 666,300.3 c -7.5,-0.1 -15,0.6 -22.3,1.9 -15.9,2.9 -30.1,12.7 -43.1,22.4 -9,6.7 -26.9,13.5 -23.3,24.1 4.2,12.3 25.9,3 38.7,5.6 20.6,4.2 40,15.6 61.1,16.3 16.1,0.5 35,0.9 47.5,-9.3 8.1,-6.5 14.3,-18.4 12.2,-28.6 -2.1,-10.3 -13.2,-17.3 -22.7,-21.8 -14.7,-7 -31.5,-10.5 -48.1,-10.6 z m 2.7,15.6 c 15.1,-0.1 34.2,5.1 41.6,18.3 3.4,6.1 2.1,15.9 -2.9,20.7 -11.9,11.4 -33.1,7.9 -49.2,4.6 -14.4,-3 -39.2,-6.5 -38.7,-21.2 0.7,-18 31.2,-22.3 49.2,-22.4 z"
       id="path1080"
       inkscape:connector-curvature="0" />
    <circle
       style="opacity:1;vector-effect:none;fill:#000000;fill-opacity:1;stroke:none;stroke-width:1px;stroke-linecap:butt;stroke-linejoin:miter;stroke-miterlimit:4;stroke-dasharray:none;stroke-dashoffset:0;stroke-opacity:1;paint-order:fill markers stroke"
       id="path1102"
       cx="671.5"
       cy="338.7"
       r="17.18" />
    <path
       style="opacity:1;vector-effect:none;fill:#000000;fill-opacity:1;fill-rule:evenodd;stroke:none;stroke-width:1px;stroke-linecap:butt;stroke-linejoin:miter;stroke-miterlimit:4;stroke-dasharray:none;stroke-dashoffset:0;stroke-opacity:1"
       d="m 969.7,306 c -10.8,-0.1 -21.8,1.1 -32.4,2 -5.4,0.5 -10.9,1.3 -15.7,3.8 -13.7,7 -33.8,14.7 -35,30 -1,13.2 13.6,25.2 25.9,30.2 18.9,7.8 40.7,-4.7 61.2,-5.2 10.8,-0.3 22.4,5.3 32.3,1.1 12,-5.1 27,-16.1 26,-29.1 -1,-13.7 -18,-22.1 -31,-27.3 -9.9,-4.1 -20.5,-5.4 -31.3,-5.5 z m -37.5,8 c 9.9,0.3 20.1,4.1 30.1,3.9 7.6,-0.1 15.1,-2.8 22.7,-2.3 7.5,0.5 16,1.2 22,5.5 9,5.9 19,15.3 18,25.6 -1,6.5 -9,10.2 -15,12.5 -16.8,6.5 -36.1,1.3 -54.1,2.1 -14.4,0.6 -30.5,8.9 -43.1,2 -9.2,-5.1 -17.6,-17.1 -15.7,-27.4 2,-10.7 15.1,-17.3 25.5,-20.6 3.1,-1 6.4,-1.3 9.6,-1.3 z"
       id="path1104"
       inkscape:connector-curvature="0" />
    <circle
       style="opacity:1;vector-effect:none;fill:#000000;fill-opacity:1;stroke:none;stroke-width:1px;stroke-linecap:butt;stroke-linejoin:miter;stroke-miterlimit:4;stroke-dasharray:none;stroke-dashoffset:0;stroke-opacity:1;paint-order:fill markers stroke"
       id="path1102-0"
       cx="975.8"
       cy="340.4"
       r="17.18" />
  </g>
  <g
     inkscape:groupmode="layer"
     id="layer8"
     inkscape:label="core-7"
     sodipodi:insensitive="true">
    <path
       style="opacity:1;vector-effect:none;fill:#6b9ff2;fill-opacity:1;fill-rule:evenodd;stroke:none;stroke-width:1.1683px;stroke-linecap:butt;stroke-linejoin:miter;stroke-miterlimit:4;stroke-dasharray:none;stroke-dashoffset:0;stroke-opacity:1;paint-order:fill markers stroke"
       d="m 636.9,345.4 c -36.2,11.1 -53.1,55.5 -70.3,89.2 -45.2,88.5 -72.8,157.4 -93.3,252 -4.1,19 2.6,49.6 24.9,56.2 17.2,5.1 41.7,-3 49.4,-19.3 28,-59.6 34.9,-108.7 67.3,-172 14.2,-27.7 36.5,-58.1 47.9,-87.1 10,-25.5 13.3,-46.3 15.8,-73.5 1,-10.4 1.3,-21.8 -4.5,-30.5 -8.6,-13 -22.3,-19.6 -37.2,-15 z"
       id="path1137"
       inkscape:connector-curvature="0"
       sodipodi:nodetypes="ssssssssss" />
    <path
       style="opacity:1;vector-effect:none;fill:#6b9ff2;fill-opacity:1;fill-rule:evenodd;stroke:none;stroke-width:1.1683px;stroke-linecap:butt;stroke-linejoin:miter;stroke-miterlimit:4;stroke-dasharray:none;stroke-dashoffset:0;stroke-opacity:1;paint-order:fill markers stroke"
       d="m 936.2,352.2 c -24.8,5.1 -36.8,31.8 -24.6,53.9 27.3,49.6 62.1,73.6 85.8,116.4 17.6,32 29.6,68.5 31.6,105 2,33.4 1,59.8 2,101.2 0,14.2 8,39.4 18,49.7 10,10.3 15,7 29,8.8 15,1.9 32,-7.9 36,-23.1 11,-37.2 10,-72.4 7,-112.9 -3,-44.2 -6,-89.9 -22,-131.2 -13,-32.9 -36,-61 -58,-88.7 -20,-25.2 -42.5,-48.8 -66.6,-70 -11.9,-10.4 -27,-11.4 -38.2,-9.1 z"
       id="path1144"
       inkscape:connector-curvature="0"
       sodipodi:nodetypes="sssssssssssss" />
  </g>
</svg>
