<?xml version="1.0" encoding="UTF-8" standalone="no"?>
<!-- Created with Inkscape (http://www.inkscape.org/) -->

<svg
   xmlns:dc="http://purl.org/dc/elements/1.1/"
   xmlns:cc="http://creativecommons.org/ns#"
   xmlns:rdf="http://www.w3.org/1999/02/22-rdf-syntax-ns#"
   xmlns:svg="http://www.w3.org/2000/svg"
   xmlns="http://www.w3.org/2000/svg"
   xmlns:sodipodi="http://sodipodi.sourceforge.net/DTD/sodipodi-0.dtd"
   xmlns:inkscape="http://www.inkscape.org/namespaces/inkscape"
   width="1920"
   height="1080"
   viewBox="0 0 1920 1080"
   version="1.1"
   id="svg8"
   inkscape:version="0.92.2 5c3e80d, 2017-08-06"
   sodipodi:docname="core-wodao-2.svg">
  <defs
     id="defs2" />
  <sodipodi:namedview
     id="base"
     pagecolor="#ffffff"
     bordercolor="#666666"
     borderopacity="1.0"
     inkscape:pageopacity="0.0"
     inkscape:pageshadow="2"
     inkscape:zoom="0.35"
     inkscape:cx="918.6"
     inkscape:cy="690.8"
     inkscape:document-units="px"
     inkscape:current-layer="layer2"
     showgrid="false"
     units="px"
     width="1921px"
     inkscape:pagecheckerboard="true"
     borderlayer="true"
     inkscape:window-width="1920"
     inkscape:window-height="1136"
     inkscape:window-x="0"
     inkscape:window-y="27"
     inkscape:window-maximized="1" />
  <metadata
     id="metadata5">
    <rdf:RDF>
      <cc:Work
         rdf:about="">
        <dc:format>image/svg+xml</dc:format>
        <dc:type
           rdf:resource="http://purl.org/dc/dcmitype/StillImage" />
        <dc:title></dc:title>
      </cc:Work>
    </rdf:RDF>
  </metadata>
  <g
     inkscape:groupmode="layer"
     id="layer2"
     inkscape:label="core">
    <path
       style="fill:none;fill-rule:evenodd;stroke:#000000;stroke-width:64;stroke-linecap:round;stroke-linejoin:round;stroke-opacity:1;paint-order:fill markers stroke;stroke-miterlimit:4;stroke-dasharray:none"
       d="m 488.6,445.7 v 0"
       id="path142"
       inkscape:connector-curvature="0"
       sodipodi:nodetypes="cc" />
    <path
       style="fill:none;fill-rule:evenodd;stroke:#000000;stroke-width:64;stroke-linecap:round;stroke-linejoin:round;stroke-miterlimit:4;stroke-dasharray:none;stroke-opacity:1;paint-order:fill markers stroke"
       d="m 474.3,667.1 v 0"
       id="path142-3"
       inkscape:connector-curvature="0"
       sodipodi:nodetypes="cc" />
    <path
       style="opacity:1;vector-effect:none;fill:none;fill-opacity:1;fill-rule:evenodd;stroke:#000000;stroke-width:40;stroke-linecap:round;stroke-linejoin:round;stroke-miterlimit:4;stroke-dasharray:none;stroke-dashoffset:0;stroke-opacity:1;paint-order:fill markers stroke"
       d="m 650.8,442.2 c 0,0 58.2,17.2 61.4,54.2 2.9,34.1 -40.8,55.1 -40.8,55.1 1.7,-0.2 58.5,16.6 52.9,64.2 -5.8,49.1 -100.3,47.1 -107.2,45.7"
       id="path973"
       inkscape:connector-curvature="0"
       sodipodi:nodetypes="cscsc" />
    <path
       style="fill:none;fill-rule:evenodd;stroke:#000000;stroke-width:40;stroke-linecap:round;stroke-linejoin:round;stroke-opacity:1;font-variant-east_asian:normal;opacity:1;vector-effect:none;fill-opacity:1;stroke-miterlimit:4;stroke-dasharray:none;stroke-dashoffset:0;paint-order:fill markers stroke"
       d="m 977.8,774.9 289.2,-8"
       id="path989"
       inkscape:connector-curvature="0" />
    <path
       style="opacity:1;vector-effect:none;fill:none;fill-opacity:1;fill-rule:evenodd;stroke:#000000;stroke-width:40;stroke-linecap:round;stroke-linejoin:round;stroke-miterlimit:4;stroke-dasharray:none;stroke-dashoffset:0;stroke-opacity:1;paint-order:fill markers stroke"
       d="m 848.1,784.4 c 0,0 -274.8,5.5 -385.5,0.6 -73.5,-3.2 -146.7,-60.5 -181.8,-125.2 -37.2,-68.7 -37.1,-162.7 -6,-234.4 32.3,-74.4 105.6,-133.9 181.8,-161.6 129.2,-46.9 275.7,-4.8 412.1,12.1 148.3,18.4 303.3,32.4 438.3,97 70,33.5 147,76.3 182,145.5 13,25.8 4,86.8 4,86.8"
       id="path996"
       inkscape:connector-curvature="0"
       sodipodi:nodetypes="csssssssc" />
    <path
       style="opacity:1;vector-effect:none;fill:none;fill-opacity:1;fill-rule:evenodd;stroke:#000000;stroke-width:40;stroke-linecap:round;stroke-linejoin:round;stroke-miterlimit:4;stroke-dasharray:none;stroke-dashoffset:0;stroke-opacity:1;paint-order:fill markers stroke"
       d="m 911.4,580 c 0,0 3.4,100.9 -11.3,144.2 -13.7,40.1 -64.8,63.7 -70.1,105.8 -2.2,17.5 2.5,28.2 18.6,35.7 20.2,9.4 46.2,-5.5 64.3,-18.6 41.8,-30.4 69.9,-79.7 87,-128.5 C 1017,669 1019,561.4 1019,561.4"
       id="path1003"
       inkscape:connector-curvature="0"
       sodipodi:nodetypes="csssssc" />
    <path
       style="opacity:1;vector-effect:none;fill:none;fill-opacity:1;fill-rule:evenodd;stroke:#000000;stroke-width:40;stroke-linecap:round;stroke-linejoin:round;stroke-miterlimit:4;stroke-dasharray:none;stroke-dashoffset:0;stroke-opacity:1;paint-order:fill markers stroke"
       d="m 285.7,670 c 0,0 -59.3,0.9 -115.7,14.3 -30.3,7.2 -66.8,24.6 -57.2,54.3 9.2,28.3 58.9,32.1 88.6,30 62.5,-4.5 172.9,-7.1 172.9,-7.1"
       id="path1010"
       inkscape:connector-curvature="0"
       sodipodi:nodetypes="csssc" />
    <path
       style="opacity:1;vector-effect:none;fill:none;fill-opacity:1;fill-rule:evenodd;stroke:#000000;stroke-width:40;stroke-linecap:round;stroke-linejoin:round;stroke-miterlimit:4;stroke-dasharray:none;stroke-dashoffset:0;stroke-opacity:1;paint-order:fill markers stroke"
       d="m 1350,590 c 0,0 -61,64.9 -74,108.6 -9,30.7 -11,67.1 10,91.4 13,15 35,13 55,11.4 68,-5.2 114,0.1 161,-20 7,-3.2 17,-41.7 -19,-48.6 -32,-5.9 -112,-18.6 -112,-18.6 0,0 24,-39.2 54,-57 37,-21.5 64,-14 68,-52 0,0 44,42.8 70,53.4 38,15.1 90,10.2 128,22.8 31,10.1 60,21 64,50 2,24.5 -28,42.3 -53,42.9 -60,1.3 -62,-1.7 -113,-5.7 -21,-1.7 -53,-14.7 -69,-28.6 -35,-32.2 -57,-50.7 -95,-82.8"
       id="path1017"
       inkscape:connector-curvature="0"
       sodipodi:nodetypes="cssssscscssssssc" />
  </g>
</svg>
